<?xml version="1.0" encoding="UTF-8"?>
<svg xmlns="http://www.w3.org/2000/svg" width="225" height="45" viewBox="0 0 225 45">
  <g>
    <g>
      <g>
        <path fill="#006db8" d="M30.501 10.912c5.423.66 10.268 3.473 11.837 8.106.207.628.392 1.262.567 1.907.287-8.976-2.545-17.559-8.962-20.156-6.092-2.47-14.784 1.28-20.87 7.38.176-.106.362-.206.54-.3 4.71-2.428 11.963-1.453 16.888 3.063"></path>
      </g>
      <g>
        <path fill="#db000c" d="M10.606 23.882c-2.142-5.018-2.132-10.621 1.1-14.298.44-.491.894-.971 1.366-1.435C5.162 12.379-.86 19.124.1 25.982c.904 6.51 8.5 12.162 16.82 14.39-.172-.109-.353-.217-.521-.328-4.46-2.869-7.245-9.634-5.792-16.162"></path>
      </g>
      <g>
        <path fill="#a50b27" d="M10.606 23.882c.76-3.429 2.687-6.783 6.144-9.478 3.817-2.977 9.003-4.056 13.751-3.492-4.925-4.516-12.178-5.49-16.889-3.062-.177.094-.363.193-.54.299a32.11 32.11 0 0 0-1.366 1.435c-3.232 3.677-3.242 9.28-1.1 14.298"></path>
      </g>
      <g>
        <path fill="#18a399" d="M42.88 21.54c-.252 5.298-4.718 11.087-11.094 13.094-3.274 4.367-8.14 7.162-12.932 6.2a33.458 33.458 0 0 1-1.933-.46c7.623 4.728 16.475 6.571 21.937 2.31 5.181-4.036 6.277-13.442 4.047-21.757-.006.197-.013.407-.025.613"></path>
      </g>
      <g>
        <path fill="#0058a7" d="M30.501 10.912c2.59 2.373 4.54 5.722 5.143 10.069.672 4.795-.988 9.827-3.858 13.653 6.377-2.007 10.844-7.794 11.095-13.094.011-.206.018-.416.024-.615a37.225 37.225 0 0 0-.567-1.907c-1.57-4.633-6.414-7.446-11.837-8.106"></path>
      </g>
      <g>
        <path fill="#008b93" d="M31.786 34.634c-3.35 1.057-7.219 1.069-11.286-.584-4.484-1.814-8.019-5.77-9.894-10.169-1.454 6.53 1.332 13.294 5.792 16.163.166.111.347.217.522.33.641.173 1.285.323 1.935.459 4.791.962 9.657-1.832 12.931-6.199"></path>
      </g>
      <g>
        <path fill="#5e1670" d="M35.644 20.981c-.602-4.348-2.553-7.696-5.143-10.07-4.75-.564-9.935.516-13.752 3.493-3.457 2.695-5.382 6.05-6.143 9.478 1.875 4.398 5.41 8.355 9.895 10.169 4.068 1.65 7.934 1.64 11.286.583 2.87-3.826 4.528-8.857 3.857-13.653"></path>
      </g>
      <g>
        <path fill="#db000c" d="M91.528 31.555c0 .955.29 2.222 2.811 2.23l3.601-.008v5.033l-4.985-.006c-5.59 0-8.675-2.467-8.679-6.952l.01-20.504 7.247.008s-.005 2.913 0 3.62c.803.006 6.382.006 6.382.006l-.03.485c-.126 2.316-.641 4.466-3.577 4.54 0 0-2.09 0-2.78.005.005.853 0 11.542 0 11.542M75.21 15.311c5.37.987 6.501 3.51 6.497 5.454v15.242c-.004 2.455-3.285 2.784-6.488 2.778l-.469.006s0-.72.006-.97c-1.697.685-3.77 1.324-7.72 1.145-3.989-.188-9.236-1.498-11.976-4.616-1.947-2.211-2.74-4.498-2.74-7.896-.004-7.105 5.035-11.012 14.965-11.603 2.44-.15 4.726-.13 7.925.46m-.947 17.206l.003-11.355a.628.628 0 0 0-.204-.47c-.423-.418-1.644-.903-5.08-.853-5.945.075-9.224 2.423-9.227 6.615.003 4.56 2.713 6.982 8.284 7.41 2.338.181 4.8-.359 6.224-1.347M99.998 6.105h7.445l-.011 32.705-7.441-.006zm79.24 25.468c.002.95.29 2.225 2.816 2.225h3.591v5.024l-4.984.007c-5.588-.007-8.67-2.474-8.666-6.958V11.368h7.249l-.004 3.626h6.38l-.022.498c-.131 2.303-.646 4.466-3.582 4.534h-2.772c-.004.858-.006 11.547-.006 11.547m8.6-16.579l7.44.006v23.822h-7.438zm3.725-8.82c2.284.005 4.125 1.36 4.125 3.037 0 1.672-1.844 3.026-4.125 3.03-2.27-.004-4.124-1.364-4.124-3.042.003-1.672 1.853-3.032 4.124-3.025m-33.438 8.622c7.65.005 11.531 3.111 11.531 9.256v14.77h-7.444l-.004-14.832c-.001-2.822-1.745-4.082-5.677-4.082-2.494 0-5.155.235-7.676 1.844l-.004 17.064-7.439.006v-.472l-.008-5.224V20.001s.002-.068.008-.124V17.77c.004-2.452 3.279-2.782 6.49-2.782h.468v.975c2.813-1.069 5.851-1.167 9.755-1.167m66.23 18.36v.546c0 3.535-1.605 4.491-4.373 4.952-1.09.187-2.925.372-4.833.372-11.621 0-17.517-4.223-17.513-12.54.003-7.747 5.892-11.679 17.517-11.679 2.397 0 4.71.15 6.889.443l.406.06-.007 5.051-.534-.075a43.52 43.52 0 0 0-6.173-.447c-7.171 0-10.65 2.17-10.66 6.653.003 5.118 3.386 7.51 10.648 7.504a43.4 43.4 0 0 0 7.315-.622zm-92.027-17.832c5.367.98 6.499 3.515 6.487 5.453l.008 15.249c0 2.448-3.283 2.778-6.49 2.778h-.474s.004-.729.007-.959c-1.69.667-3.767 1.311-7.718 1.132-3.994-.186-9.237-1.503-11.972-4.615-1.95-2.213-2.749-4.498-2.745-7.896.007-7.117 5.037-11.012 14.965-11.601 2.438-.15 4.728-.131 7.932.46m-.95 17.211l-.003-11.36a.646.646 0 0 0-.203-.474c-.425-.422-1.642-.894-5.07-.856-5.956.081-9.233 2.435-9.227 6.62-.006 4.56 2.698 6.982 8.278 7.411 2.34.181 4.799-.36 6.225-1.34"></path>
      </g>
    </g>
  </g>
</svg>
