<svg xmlns="http://www.w3.org/2000/svg" viewBox="0 0 3052.59 596.06"><defs><style>.cls-1{fill:#f04d24;}.cls-1,.cls-2{fill-rule:evenodd;}.cls-2{fill:#034da2;}</style></defs><title>gree</title><g id="Layer_2" data-name="Layer 2"><g id="svg30592"><path id="path29557" class="cls-1" d="M716.69,260.8A250.31,250.31,0,0,1,719.92,298c0,164.39-162,298.08-360.19,298.08-29.18,0-57.67-2.62-84.84-8.51,11.3-23.56,36.55-76.11,77.53-170.62,59.92-138.26-48.34-144-48.34-144l2.41-12.1Z"/><path id="path29561" class="cls-2" d="M359.72,0c160,0,295.95,87.13,342.61,206.78H313.63L154.84,543.08C61.48,488.81,0,399.31,0,298,0,133.79,161.49,0,359.72,0"/><path id="path29577" class="cls-2" d="M3052.59,121.06H2760s-197.39-8.87-222.27,201.73,82.06,245,185.69,245h230.14l14.94-58.35H2762.2S2663,501,2678,358.43c.14-1.18.31-2.31.31-3.11H2977l16.21-50.91H2686.44c21.44-99.8,68.08-131.54,135.16-131.54h214.77Zm-501.16,0H2259.06s-197.59-8.87-222.42,201.73,81.82,245,185.63,245h230l14.94-58.35H2261s-99.29-8.52-84.39-151a8.91,8.91,0,0,0,.63-3.11H2476L2492,304.41H2185.31c21.44-99.8,68.35-131.54,135.39-131.54h214.62Zm-1012.11,0h351.6s143.85-5.64,120.63,113.25c-23.65,119.32-124,123.85-147.3,123.85L1978.6,568.54h-104s-54.81,17.43-102.66-71.23C1724,408.48,1668.1,303.39,1668.1,303.39h103.81s74.72,2.13,95.81-56c21-58.5-22.23-71.48-57.43-71.48H1673.74L1566.23,571H1419.16ZM1463,119.8H1114.61s-186.44-3.52-244.24,209.45c0,0-74.38,213.1,144.58,238.5h258.3s79.78,13.86,113.19-118.09c33.69-132,35.91-146.94,35.91-146.94H1171.22l-19.56,60.2h117.91L1239.3,468.21s-7.9,38.43-39.34,40.41c-31.15,2.5-112.21,0-112.21,0s-72.8,3.84-79.81-77.2c-6.91-81.36,34.81-248.94,165.43-248.94h268.42Z"/></g></g></svg>