<svg xmlns="http://www.w3.org/2000/svg" viewBox="0 0 292.04 67.86"><defs><style>.cls-1{fill:#20479c;}.cls-2{fill:#fff;}</style></defs><title>NORDCEL</title><g id="Layer_2" data-name="Layer 2"><g id="Layer_1-2" data-name="Layer 1"><rect class="cls-1" width="292.04" height="67.86"/><path class="cls-2" d="M17.07,53.88V14h7.84L41.25,40.63V14h7.49V53.88H40.65l-16.09-26v26Z"/><path class="cls-2" d="M54.64,34.17a25.31,25.31,0,0,1,1.82-10.23,18.85,18.85,0,0,1,3.72-5.48,15.6,15.6,0,0,1,5.16-3.59,21.92,21.92,0,0,1,8.6-1.58q8.82,0,14.11,5.47T93.35,34q0,9.68-5.25,15.13t-14,5.45q-8.91,0-14.16-5.43T54.64,34.17Zm8.3-.27q0,6.78,3.13,10.28a10.76,10.76,0,0,0,15.86,0Q85,40.73,85,33.79T82,23.56a10.18,10.18,0,0,0-8-3.38,10.24,10.24,0,0,0-8,3.42Q62.95,27,62.94,33.9Z"/><path class="cls-2" d="M99,53.88V14h17q6.39,0,9.3,1.08a9.19,9.19,0,0,1,4.64,3.82,11.53,11.53,0,0,1,1.74,6.29A10.65,10.65,0,0,1,129,32.58q-2.64,2.93-7.9,3.69a18.78,18.78,0,0,1,4.32,3.35A45.58,45.58,0,0,1,130,46.1l4.87,7.78H125.2l-5.82-8.68a57.59,57.59,0,0,0-4.25-5.87,6.16,6.16,0,0,0-2.42-1.66,13.32,13.32,0,0,0-4.06-.45H107V53.88Zm8.06-23h6c3.86,0,6.28-.16,7.24-.49a4.38,4.38,0,0,0,2.26-1.69,5.19,5.19,0,0,0,.82-3,4.76,4.76,0,0,0-1.08-3.25,4.94,4.94,0,0,0-3-1.57q-1-.13-5.89-.14H107Z"/><path class="cls-2" d="M138.48,14h14.73a29.08,29.08,0,0,1,7.59.76,13.38,13.38,0,0,1,6,3.68,17.43,17.43,0,0,1,3.81,6.47,29.45,29.45,0,0,1,1.31,9.43,26.1,26.1,0,0,1-1.23,8.49,17.53,17.53,0,0,1-4.27,7.05A14.07,14.07,0,0,1,160.77,53a24.46,24.46,0,0,1-7.13.84H138.48Zm8.06,6.75V47.16h6a22.15,22.15,0,0,0,4.87-.38,7.47,7.47,0,0,0,3.26-1.66,8.54,8.54,0,0,0,2.11-3.86,26.15,26.15,0,0,0,.81-7.3,24,24,0,0,0-.81-7.11A9.25,9.25,0,0,0,160.5,23a7.63,7.63,0,0,0-3.73-1.87,35.65,35.65,0,0,0-6.61-.39Z"/><path class="cls-2" d="M203.2,39.21,211,41.69q-1.8,6.53-6,9.7a17,17,0,0,1-10.6,3.17,17.17,17.17,0,0,1-13.07-5.43q-5.12-5.43-5.12-14.85,0-10,5.15-15.48t13.53-5.51q7.32,0,11.9,4.33A15.84,15.84,0,0,1,210.9,25l-8,1.91a8.24,8.24,0,0,0-8.41-6.7,9.06,9.06,0,0,0-7.2,3.19q-2.76,3.18-2.76,10.31,0,7.57,2.72,10.78a8.81,8.81,0,0,0,7.08,3.22,8,8,0,0,0,5.52-2A11.86,11.86,0,0,0,203.2,39.21Z"/><path class="cls-2" d="M216.42,53.88V14H246v6.75H224.48v8.85h20V36.3h-20V47.16h22.3v6.72Z"/><path class="cls-2" d="M252.87,53.88V14.3h8.05V47.16h20v6.72Z"/></g></g></svg>